<?xml version="1.0" standalone="no"?><svg xmlns="http://www.w3.org/2000/svg" viewBox="0 0 1440 318"><path fill="#fff" fill-opacity="1" d="M0,32L34.3,80C68.6,128,137,224,206,245.3C274.3,267,343,213,411,202.7C480,192,549,224,617,245.3C685.7,267,754,277,823,245.3C891.4,213,960,139,1029,128C1097.1,117,1166,171,1234,170.7C1302.9,171,1371,117,1406,90.7L1440,64L1440,0L1405.7,0C1371.4,0,1303,0,1234,0C1165.7,0,1097,0,1029,0C960,0,891,0,823,0C754.3,0,686,0,617,0C548.6,0,480,0,411,0C342.9,0,274,0,206,0C137.1,0,69,0,34,0L0,0Z"></path></svg>