<?xml version="1.0" standalone="no"?><svg xmlns="http://www.w3.org/2000/svg" viewBox="0 0 1440 318"><path fill="#fff" fill-opacity="1" d="M0,128L34.3,112C68.6,96,137,64,206,90.7C274.3,117,343,203,411,224C480,245,549,203,617,165.3C685.7,128,754,96,823,117.3C891.4,139,960,213,1029,202.7C1097.1,192,1166,96,1234,74.7C1302.9,53,1371,107,1406,133.3L1440,160L1440,320L1405.7,320C1371.4,320,1303,320,1234,320C1165.7,320,1097,320,1029,320C960,320,891,320,823,320C754.3,320,686,320,617,320C548.6,320,480,320,411,320C342.9,320,274,320,206,320C137.1,320,69,320,34,320L0,320Z"></path></svg>